<?xml version="1.0" encoding="utf-8"?>
<!-- Generator: Adobe Illustrator 21.0.0, SVG Export Plug-In . SVG Version: 6.00 Build 0)  -->
<svg version="1.1" id="Layer_1" xmlns="http://www.w3.org/2000/svg" xmlns:xlink="http://www.w3.org/1999/xlink" x="0px" y="0px"
	 viewBox="0 0 192 54" style="enable-background:new 0 0 192 54;" xml:space="preserve">
<style type="text/css">
	.st0{fill:#999999;}
	.st1{opacity:0.5;fill:none;stroke:#ED1C24;stroke-width:2.1338;stroke-miterlimit:10;}
	.st2{opacity:0.5;fill:none;stroke:#F7931E;stroke-width:2.1338;stroke-miterlimit:10;}
	.st3{opacity:0.5;fill:none;stroke:#FF00FF;stroke-width:2.1338;stroke-miterlimit:10;}
</style>
<path class="st0" d="M95.1,37.1l-2.1-6h-8.2l-2.1,6h-2l7.3-20.2h1.8l7.3,20.2H95.1z M89.3,20.4c-0.1-0.2-0.1-0.4-0.2-0.6
	C89,19.6,89,19.3,88.9,19h-0.1c-0.1,0.3-0.1,0.6-0.2,0.8c-0.1,0.2-0.1,0.4-0.2,0.6l-3.1,9h7L89.3,20.4z"/>
<path class="st0" d="M110.6,37.1l-2.9-5.8c-0.3-0.6-0.6-1.1-0.8-1.4c-0.3-0.4-0.5-0.7-0.8-0.9c-0.3-0.2-0.6-0.4-0.9-0.5
	s-0.7-0.1-1.1-0.1h-2.1v8.8h-1.8V16.9h5.5c0.7,0,1.4,0.1,2.1,0.3s1.3,0.6,1.8,1c0.5,0.4,0.9,1,1.3,1.7c0.3,0.7,0.5,1.4,0.5,2.3
	c0,0.7-0.1,1.4-0.3,2c-0.2,0.6-0.5,1.1-0.9,1.6c-0.4,0.5-0.8,0.9-1.4,1.2c-0.5,0.3-1.1,0.6-1.8,0.7v0.1c0.3,0.1,0.5,0.3,0.7,0.4
	c0.2,0.2,0.4,0.4,0.6,0.6c0.2,0.3,0.4,0.5,0.6,0.9c0.2,0.3,0.4,0.7,0.6,1.1l3.2,6.3H110.6z M101.9,18.6v8h3.2c0.6,0,1.2-0.1,1.8-0.3
	c0.5-0.2,1-0.5,1.4-0.8c0.4-0.4,0.7-0.8,0.9-1.3c0.2-0.5,0.3-1.1,0.3-1.7c0-1.2-0.4-2.1-1.1-2.8c-0.7-0.7-1.8-1-3.1-1H101.9z"/>
<path class="st0" d="M120.7,18.6v18.5h-1.8V18.6h-5.5v-1.7h12.8v1.7H120.7z"/>
<path class="st0" d="M131.2,37.1h-1.8V16.9h1.8V37.1z"/>
<path class="st0" d="M146.2,37.1l-7.8-9.5c-0.2-0.3-0.4-0.5-0.4-0.6h-0.1v10h-1.8V16.9h1.8v9.5h0.1c0.1-0.1,0.1-0.2,0.2-0.3
	c0.1-0.1,0.1-0.2,0.2-0.3l7.5-8.9h2.3l-8.3,9.8l8.9,10.5H146.2z"/>
<path class="st0" d="M163.7,37.1l-2.1-6h-8.2l-2.1,6h-2l7.3-20.2h1.8l7.3,20.2H163.7z M157.9,20.4c-0.1-0.2-0.1-0.4-0.2-0.6
	c-0.1-0.2-0.1-0.5-0.2-0.8h-0.1c-0.1,0.3-0.1,0.6-0.2,0.8c-0.1,0.2-0.1,0.4-0.2,0.6l-3.1,9h7L157.9,20.4z"/>
<g>
	<path class="st1" d="M70.9,21.8c-0.2,0.9-0.5,1.7-0.9,2.5c-2.1-1.9-4.8-3.2-7.9-3.9c-3.5-0.7-7.1-0.4-10.2,0.9
		c-2.3-2.6-5.5-4.5-9.3-5.3c-1.5-0.3-3-0.4-4.5-0.3c0-0.2,0.1-0.4,0.1-0.5c2-8.3,10.9-13.5,19.9-11.7C67.2,5.4,72.9,13.6,70.9,21.8z
		"/>
	<path class="st2" d="M74.8,38.8c-2,8.3-10.9,13.5-19.9,11.7c-3.8-0.8-7-2.7-9.3-5.3c4.8-1.9,8.5-5.8,9.7-10.8
		c0-0.2,0.1-0.4,0.1-0.5c6.4-0.3,12.1-4,14.6-9.5C74.1,27.9,76.1,33.4,74.8,38.8z"/>
	<path class="st3" d="M45.6,45.2c-3.1,1.2-6.6,1.6-10.2,0.9c-9-1.8-14.7-10-12.7-18.3c1.7-6.9,8.1-11.7,15.4-12
		c-1.1,5.3,0.9,10.4,4.9,13.9c-0.4,0.8-0.7,1.6-0.9,2.5C41.1,36.9,42.5,41.7,45.6,45.2z"/>
</g>
<path class="st0" d="M95.1,37.1l-2.1-6h-8.2l-2.1,6h-2l7.3-20.2h1.8l7.3,20.2H95.1z M89.3,20.4c-0.1-0.2-0.1-0.4-0.2-0.6
	C89,19.6,89,19.3,88.9,19h-0.1c-0.1,0.3-0.1,0.6-0.2,0.8c-0.1,0.2-0.1,0.4-0.2,0.6l-3.1,9h7L89.3,20.4z"/>
</svg>
