<?xml version="1.0" encoding="utf-8"?>
<!-- Generator: Adobe Illustrator 21.0.0, SVG Export Plug-In . SVG Version: 6.00 Build 0)  -->
<svg version="1.1" id="Layer_1" xmlns="http://www.w3.org/2000/svg" xmlns:xlink="http://www.w3.org/1999/xlink" x="0px" y="0px"
	 viewBox="0 0 80 80" style="enable-background:new 0 0 80 80;" xml:space="preserve">
<style type="text/css">
	.st0{opacity:0.5;fill:none;stroke:#ED1C24;stroke-width:2.8948;stroke-miterlimit:10;}
	.st1{opacity:0.5;fill:none;stroke:#F7931E;stroke-width:2.8948;stroke-miterlimit:10;}
	.st2{opacity:0.5;fill:none;stroke:#FF00FF;stroke-width:2.8948;stroke-miterlimit:10;}
</style>
<g>
	<path class="st0" d="M69.6,32.9c-0.3,1.2-0.7,2.4-1.2,3.5c-2.8-2.6-6.4-4.4-10.5-5.3c-4.7-1-9.5-0.5-13.6,1.2
		c-3.1-3.6-7.4-6.2-12.5-7.3c-2-0.4-4-0.6-6-0.5c0-0.3,0.1-0.5,0.1-0.7c2.7-11.4,14.6-18.5,26.7-16C64.7,10.3,72.3,21.5,69.6,32.9z"
		/>
	<path class="st1" d="M74.9,56.2c-2.7,11.4-14.6,18.5-26.7,16c-5.1-1.1-9.4-3.7-12.5-7.3c6.4-2.6,11.4-7.9,13-14.8
		c0.1-0.3,0.1-0.5,0.1-0.7c8.6-0.4,16.2-5.4,19.5-13C73.9,41.3,76.6,48.7,74.9,56.2z"/>
	<path class="st2" d="M35.7,65c-4.2,1.7-8.9,2.2-13.6,1.2C10.1,63.6,2.5,52.4,5.1,41C7.4,31.5,16,25,25.8,24.5
		c-1.4,7.2,1.3,14.4,6.6,19.1c-0.5,1.1-0.9,2.3-1.2,3.5C29.7,53.6,31.6,60.1,35.7,65z"/>
</g>
</svg>
